<svg width="101" height="27" viewBox="0 0 101 27" fill="none" xmlns="http://www.w3.org/2000/svg">
<path d="M65.4975 3.61202L30.9125 1.79541L27.3552 2.14956C21.1873 2.89728 16.3056 4.02208 9.31645 9.27548C2.50992 14.3862 0.493164 26.9383 0.493164 26.9383C0.493164 26.9383 8.79658 23.8464 21.957 23.6012C35.1174 23.356 40.017 24.6665 40.017 24.6665C40.017 24.6665 39.4265 16.2523 44.7115 11.8771C51.2962 6.42583 65.4975 3.61202 65.4975 3.61202Z" fill="#9EAF61"/>
<path d="M3.88574 24.2871L4.0919 23.2834C4.44848 21.7345 4.94567 20.2001 5.58093 18.6882C7.02627 15.189 8.91978 12.2798 11.2099 10.041C15.8339 5.52455 24.33 2.69927 36.4641 1.65332L36.7621 2.54299C25.2958 3.53158 17.324 6.66298 13.0698 10.821C9.02621 14.7732 7.17192 20.2417 6.55009 22.4676C9.50463 22.0769 15.872 21.2754 19.9066 21.0604C25.7428 20.7492 33.002 21.3414 35.8165 21.6066C36.0663 20.1449 36.7879 16.868 38.5514 14.0276C40.1264 11.4832 42.8096 9.28144 46.2823 7.68383C48.9153 6.473 51.0833 6.02709 51.174 6.00917L51.8463 7.36553C51.8295 7.36553 49.8688 7.77846 47.5114 8.87101C44.4075 10.3008 42.0148 12.2736 40.6208 14.5524C38.4472 18.0523 37.9318 22.4325 37.9229 22.4762L37.8344 23.2555L36.6266 23.1264C36.5324 23.1164 27.0582 22.1063 20.0914 22.4777C14.9555 22.7515 5.52603 24.0591 5.42968 24.072L3.88574 24.2871Z" fill="#639334"/>
<path d="M33.2193 2.38184C29.7359 2.75104 24.8644 6.89827 33.1073 7.91984C42.0505 9.02745 47.3848 7.84815 50.2284 6.98788C53.072 6.12761 41.5631 2.7453 41.5631 2.7453L33.2193 2.38184Z" fill="#639334"/>
<path d="M27.3555 2.15019C27.3555 2.15019 35.3384 1.15586 48.705 7.74986C57.2415 11.9616 72.3223 25.2457 72.3223 25.2457C72.3223 25.2457 75.8729 21.4461 82.666 18.5542C93.7021 13.8578 100.15 12.5495 100.15 12.5495C100.15 12.5495 92.3946 5.84005 81.2755 3.43989C54.4707 -2.34903 27.3555 2.15019 27.3555 2.15019Z" fill="#BDE377"/>
<path d="M95.8138 12.3083L97.5438 11.9986L96.2575 11.1964C95.9326 10.9928 88.1771 6.18745 79.0558 3.39157C77.7258 2.98222 76.3186 2.59797 74.8822 2.23593C70.1174 1.47784 65.2661 0.962926 60.3739 0.696045C65.027 1.21221 71.0179 1.30397 78.9572 4.41959C85.2987 6.90865 90.977 9.92462 93.5394 11.3921C89.2244 12.3927 85.1446 13.7677 81.4142 15.4784C77.5208 17.2771 73.7091 19.5468 72.0498 20.5684C69.0908 18.0169 57.8418 8.47076 52.2464 5.77022C47.2953 3.3801 41.7918 1.84308 38.0462 0.974917C37.9835 0.960579 37.9947 0.970615 37.9342 0.956277C36.1639 1.08819 34.7701 1.25809 33.3887 1.40004C37.2317 2.09614 44.5256 3.69911 51.0005 6.82764C57.0967 9.77049 70.9495 21.8401 71.0885 21.9613L71.8011 22.5843L72.6548 22.0387C72.7041 22.0064 77.681 18.8349 82.6265 16.5502C89.1832 13.5206 95.7489 12.3198 95.8138 12.3083Z" fill="#6BA638"/>
<path d="M37.9326 0.955062C39.7712 1.50779 50.5026 3.54663 57.764 2.86774C65.0254 2.18884 66.7049 1.40025 63.7638 1.00381C60.8228 0.607369 57.8335 0.307707 51.1423 0.329214C44.4512 0.350721 37.9326 0.955062 37.9326 0.955062Z" fill="#6BA638"/>
<path d="M76.1299 9.87912C74.6958 10.439 73.0577 10.3946 72.4706 9.77947C71.8835 9.16437 72.5703 8.21162 74.0045 7.65173C75.4386 7.09184 77.0767 7.13628 77.6638 7.75138C78.2509 8.36647 77.5641 9.31922 76.1299 9.87912Z" fill="#6BA638"/>
<path d="M26.2514 15.8858C24.5797 15.7789 23.3148 15.1108 23.4268 14.3939C23.5389 13.677 24.9853 13.1823 26.657 13.2892C28.3287 13.396 29.5925 14.0634 29.4804 14.781C29.3684 15.4986 27.9231 15.9897 26.2514 15.8858Z" fill="#639334"/>
</svg>
