<svg width="312" height="158" viewBox="0 0 312 158" fill="none" xmlns="http://www.w3.org/2000/svg">
<path d="M8.2046 61.0613C9.88486 60.7592 13.3076 63.1043 18.4727 68.0967L18.8173 69.1366C19.058 70.3068 16.3801 71.7941 10.7836 73.5988L10.6342 73.8255L10.6858 74.0763C12.3371 77.657 13.6434 79.3485 14.6046 79.1508L15.3569 78.996C16.6942 78.7209 18.4245 76.8622 20.5478 73.4198L20.9239 73.3424C21.7598 73.1705 22.5322 73.6432 23.2412 74.7606C23.4475 75.7636 22.049 77.859 19.0457 81.0468C18.2381 81.7792 17.2123 82.4041 15.9683 82.9213C12.5832 83.6177 9.5686 80.9272 6.92457 74.85C4.94198 74.9529 3.81743 74.3566 3.55093 73.061C3.36181 72.1416 3.94761 71.3895 5.30835 70.8047L5.35993 71.0554L5.93522 70.6757L5.61285 69.1085C4.62423 64.3025 5.48814 61.6201 8.2046 61.0613ZM9.50917 65.4974L8.94498 65.6135L9.17135 67.9845L9.5711 69.9278L9.82185 69.8762C12.145 69.3112 13.2636 68.8198 13.1776 68.4018C11.7557 66.9955 10.5329 66.0273 9.50917 65.4974ZM32.7703 54.2438C34.6091 53.8656 35.679 54.4078 35.9799 55.8705L35.6607 57.1776L37.6444 68.7268C38.7103 73.909 40.4171 76.912 42.7646 77.7359L43.0834 78.6504C43.2073 79.8882 42.7678 80.6102 41.7648 80.8165L41.3886 80.8939C37.8158 79.4073 35.5781 76.4699 34.6755 72.0818L34.2366 72.1721C33.5278 77.1966 31.9823 79.9539 29.6002 80.4439C27.2563 80.2726 25.8092 78.8497 25.2591 76.175C24.0469 70.2824 25.2003 63.925 28.7192 57.1027C30.0408 55.4805 31.3912 54.5275 32.7703 54.2438ZM28.6926 72.8551L28.8029 74.662L29.0479 75.853L29.6748 75.7241C31.2015 67.2643 31.7887 62.1777 31.4362 60.4642L31.1855 60.5158C29.3204 63.7308 28.4894 67.844 28.6926 72.8551ZM46.5833 50.8797C49.2161 50.3381 51.1616 51.8546 52.4196 55.4291L52.5356 55.9933C53.3695 60.0471 52.045 64.1964 48.5622 68.4412C51.4761 70.3247 55.963 70.6432 62.0228 69.3966C63.0024 69.5001 63.5953 70.0533 63.8017 71.0563C64.0338 72.1846 63.4185 72.8993 61.9558 73.2002C57.8602 74.0426 53.3407 73.8833 48.3974 72.7222L48.7713 74.5401C49.6568 78.8446 49.1801 81.186 47.3413 81.5643C46.0458 81.8308 44.8865 79.4774 43.8635 74.5042L42.8577 69.6146L42.3085 67.898L42.3347 65.8018L40.658 59.8741L40.6064 59.6233C40.3743 58.4949 40.8003 57.6014 41.8845 56.9428C42.8438 53.3478 44.4101 51.3268 46.5833 50.8797ZM46.2729 65.253C47.4849 65.0037 48.3961 62.5512 49.0065 57.8954L48.452 55.1998L47.5321 54.5396L46.9679 54.6557C45.387 56.2877 45.1553 59.8201 46.2729 65.253ZM69.1482 49.9624C72.7607 49.5242 74.8936 50.8932 75.5469 54.0694L75.8399 54.8585L77.7262 64.6636C77.9583 65.7919 78.9199 67.1841 80.6108 68.84L80.6366 68.9654C80.5516 70.2461 80.0703 70.9767 79.1927 71.1573C76.3781 70.6037 74.6097 68.5716 73.8876 65.0611L73.7199 64.2462L73.5061 64.1595L73.6426 63.8701L73.6168 63.7447L72.0253 55.0552C71.776 53.8432 71.129 53.3447 70.0842 53.5596L69.3319 53.7143C67.4143 54.98 67.3108 59.7711 69.0216 68.0876C69.6147 70.9713 69.18 72.5635 67.7173 72.8644C66.5889 73.0965 65.8577 72.5064 65.5236 71.0941L64.2341 64.8253C62.5663 56.7178 62.4429 52.5178 63.8638 52.2256L64.452 51.9085L65.8071 51.8258C66.7808 50.8414 67.8944 50.2203 69.1482 49.9624ZM103.106 45.3294L104.106 44.4704C105.109 44.2641 105.965 44.7196 106.674 45.837C106.641 49.0671 106.96 52.3121 107.631 55.5718C107.966 57.2017 108.812 58.879 110.169 60.6036L110.545 60.5263C111.757 60.277 112.214 55.1952 111.917 45.2811C112.399 44.6592 112.912 44.2924 113.455 44.1807C114.75 43.9142 115.871 46.0795 116.817 50.6765C118.4 55.6216 119.526 58.0253 120.195 57.8878L121.058 57.3182C122.364 57.5286 123.104 58.0517 123.276 58.8876C122.85 60.6304 121.969 61.6394 120.631 61.9144C119.127 62.2239 117.375 61.016 115.377 58.2907C114.428 62.1451 113.096 64.2485 111.383 64.601C108.834 65.1254 106.511 62.837 104.417 57.7357L103.816 55.7684L103.687 55.1415C102.999 51.7982 102.806 48.5275 103.106 45.3294ZM127.929 40.4846C132.358 39.5734 135.542 41.8152 137.48 47.2102C138.494 52.1416 136.922 56.1458 132.763 59.2228C132.313 59.5767 131.649 59.844 130.772 60.0245L130.333 60.1148L128.928 60.2731L128.954 60.3984L132.648 77.0844C132.622 78.4401 132.086 79.2255 131.041 79.4404C129.794 79.305 129.084 78.8193 128.912 77.9835L121.333 43.9976C121.11 42.911 121.641 42.2136 122.928 41.9053L124.361 42.1987C125.402 41.3311 126.591 40.7597 127.929 40.4846ZM126.161 47.7743L126.373 49.7563L127.928 56.3624L129.773 56.4402C132.573 55.8642 133.97 53.4425 133.963 49.175L133.77 48.2346C132.798 44.9933 131.288 43.5832 129.241 44.0045L128.3 44.1979C126.462 44.5761 125.748 45.7683 126.161 47.7743ZM20.0599 109.8C21.2817 109.81 21.9871 110.275 22.1762 111.194L22.3675 114.03L22.5351 114.845C22.9134 116.684 23.5221 118.584 24.3612 120.546L24.4866 120.52C29.0336 118.06 31.8921 116.71 33.0623 116.469C34.343 116.554 35.0736 117.036 35.2542 117.913C35.5465 119.334 34.2508 120.341 31.3672 120.934L25.3248 124.595C26.4853 130.237 28.6688 137.781 31.8752 147.227C31.8566 148.407 31.3667 149.096 30.4054 149.294L30.2801 149.319C28.8174 149.62 27.6992 147.89 26.9255 144.129C25.8062 141.441 24.0957 135.454 21.7939 126.171L20.6655 126.403C16.6855 126.96 14.5322 126.445 14.2055 124.857C14.1109 124.397 14.4337 123.742 15.1738 122.893L15.8006 122.764L18.839 122.923L20.845 122.511L18.6689 114.791C18.05 111.782 18.5136 110.118 20.0599 109.8ZM47.0018 119.286C50.0944 118.65 52.9075 120.467 55.4412 124.738L55.9628 126.003C56.8826 130.474 55.7344 135.48 52.518 141.021C51.1645 142.911 49.6309 144.032 47.9175 144.385C45.41 144.9 43.3373 143.824 41.6993 141.155C41.0481 139.895 40.6193 138.764 40.413 137.761L40.2582 137.009C38.9 130.405 40.2714 124.896 44.3725 120.481C45.1223 119.891 45.9988 119.493 47.0018 119.286ZM44.0857 136.875C44.6703 139.716 45.694 140.987 47.1567 140.686C50.2075 140.058 51.9321 135.631 52.3305 127.403L52.0855 126.212C50.842 123.767 49.2591 122.742 47.3367 123.138C46.5844 123.293 46.3157 123.892 46.5307 124.937C46.6768 125.648 45.957 126.384 44.3713 127.145C43.4158 129.912 43.3206 133.155 44.0857 136.875ZM78.4869 105.818C78.5227 104.722 79.1675 104.045 80.4213 103.787C81.675 103.529 82.8521 106.075 83.9524 111.424L84.8368 114.77L88.3346 134.633C88.3086 135.989 87.794 136.77 86.791 136.976C85.4845 136.766 84.7453 136.243 84.5734 135.407L81.2157 115.907L78.4869 105.818ZM96.0239 98.5518C99.2419 97.8899 101.591 99.7807 103.071 104.224C103.94 108.445 102.319 117.295 98.2087 130.772L98.2861 131.149C99.9996 130.796 103.347 128.539 108.328 124.378L108.453 124.353C109.289 124.181 110.062 124.653 110.771 125.771C111.209 127.902 106 131.696 95.1434 137.153C94.4748 137.29 93.7859 136.801 93.0769 135.683C93.9417 131.628 95.8283 124.706 98.7369 114.917C99.4481 110.327 99.649 107.28 99.3395 105.776L98.9398 103.833C98.7678 102.997 98.1958 102.439 97.2236 102.16L96.4086 102.328C94.7788 102.663 93.6156 104.95 92.9192 109.188L93.262 109.901C93.4253 110.695 92.9735 111.463 91.9065 112.205C90.3 112.231 89.3679 111.617 89.11 110.363C88.6199 107.981 89.8361 104.682 92.7585 100.465C93.6399 99.4561 94.7284 98.8183 96.0239 98.5518ZM127.367 85.3092C128.581 85.495 129.283 86.0476 129.472 86.967C126.644 91.6433 125.406 97.8004 125.757 105.438C124.267 120.642 123.879 129.979 124.593 133.447L124.394 133.75C124.66 135.045 124.02 135.852 122.474 136.17C121.469 135.941 120.901 135.513 120.772 134.887C120.067 131.46 120.477 121.487 122.002 104.969C122.205 97.6966 122.838 92.6223 123.901 89.7463C125.167 87.0031 126.322 85.5241 127.367 85.3092ZM115.453 94.0978C117.877 93.5992 119.715 95.3338 120.967 99.3016L121.083 99.8658C122.243 105.508 120.989 109.577 117.321 112.074L115.806 112.647C113.34 113.154 111.433 111.826 110.085 108.662L109.564 107.397L109.435 106.77C108.549 102.466 109.871 98.5131 113.399 94.9124C113.849 94.5585 114.534 94.2869 115.453 94.0978ZM113.003 105.056L113.428 107.125C113.635 108.128 114.086 108.732 114.781 108.938L115.847 108.718C117.601 106.659 118.203 104.291 117.653 101.617L117.202 99.4227C116.995 98.4197 116.608 97.9114 116.039 97.8977L115.788 97.9493C113.484 100.514 112.556 102.883 113.003 105.056ZM134.039 107.263C135.501 106.962 136.902 109.113 138.241 113.717L138.564 115.284C139.214 120.987 138.495 124.054 136.405 124.483L135.642 124.902C132.089 125.633 129.419 123.241 127.632 117.729C126.867 114.009 127.659 111.189 130.008 109.268L130.972 108.874L132.578 108.74C132.841 107.901 133.328 107.409 134.039 107.263ZM131.432 117.143C132.218 120.118 133.322 121.459 134.743 121.166C135.323 120.176 135.377 118.531 134.904 116.233L134.581 114.666L133.522 111.42L133.146 111.498C131.401 112.336 130.83 114.217 131.432 117.143ZM159.579 86.7197C161.236 86.7273 162.176 87.2745 162.4 88.361C162.223 89.6172 161.674 90.3398 160.755 90.5289C159.149 90.5545 158.216 89.9404 157.958 88.6866C158.161 87.5559 158.702 86.9002 159.579 86.7197ZM163.767 95.0059C164.435 94.8684 165.124 95.3583 165.833 96.4757L166.185 101.043L166.791 103.989C167.496 107.416 169.005 111.788 171.318 117.106C171.064 117.986 170.435 118.529 169.432 118.735C167.719 119.088 165.559 114.305 162.952 104.386L162.501 102.192C161.59 97.7625 162.012 95.367 163.767 95.0059ZM177.653 95.0245C181.265 94.5863 183.398 95.9553 184.052 99.1314L184.345 99.9206L186.231 109.726C186.463 110.854 187.424 112.246 189.115 113.902L189.141 114.027C189.056 115.308 188.575 116.039 187.697 116.219C184.883 115.666 183.114 113.634 182.392 110.123L182.225 109.308L182.011 109.222L182.147 108.932L182.121 108.807L180.53 100.117C180.281 98.9052 179.634 98.4067 178.589 98.6216L177.837 98.7764C175.919 100.042 175.815 104.833 177.526 113.15C178.119 116.033 177.685 117.626 176.222 117.926C175.094 118.159 174.362 117.568 174.028 116.156L172.739 109.887C171.071 101.78 170.948 97.5799 172.368 97.2876L172.957 96.9706L174.312 96.8878C175.285 95.9035 176.399 95.2824 177.653 95.0245ZM189.865 74.8706C191.086 74.8807 191.792 75.3454 191.981 76.2648L192.172 79.1004L192.34 79.9154C192.718 81.7542 193.327 83.6545 194.166 85.6164L194.291 85.5906C198.838 83.1307 201.697 81.7803 202.867 81.5396C204.148 81.6247 204.878 82.106 205.059 82.9836C205.351 84.4045 204.055 85.4116 201.172 86.0047L195.129 89.6653C196.29 95.3071 198.473 102.851 201.68 112.298C201.661 113.478 201.171 114.166 200.21 114.364L200.085 114.39C198.622 114.691 197.504 112.961 196.73 109.199C195.611 106.511 193.9 100.525 191.599 91.241L190.47 91.4731C186.49 92.0305 184.337 91.5151 184.01 89.927C183.916 89.4673 184.238 88.8128 184.978 87.9636L185.605 87.8347L188.644 87.9938L190.65 87.5811L188.474 79.8613C187.855 76.8523 188.318 75.1887 189.865 74.8706ZM212.65 86.3878C214.331 86.0857 217.753 88.4309 222.919 93.4232L223.263 94.4631C223.504 95.6333 220.826 97.1207 215.229 98.9253L215.08 99.1521L215.132 99.4028C216.783 102.984 218.089 104.675 219.05 104.477L219.803 104.323C221.14 104.047 222.87 102.189 224.994 98.7463L225.37 98.6689C226.206 98.497 226.978 98.9697 227.687 100.087C227.893 101.09 226.495 103.186 223.492 106.373C222.684 107.106 221.658 107.731 220.414 108.248C217.029 108.944 214.014 106.254 211.37 100.177C209.388 100.279 208.263 99.6831 207.997 98.3876C207.808 97.4682 208.393 96.716 209.754 96.1312L209.806 96.3819L210.381 96.0022L210.059 94.4351C209.07 89.629 209.934 86.9466 212.65 86.3878ZM213.955 90.824L213.391 90.94L213.617 93.311L214.017 95.2543L214.268 95.2028C216.591 94.6378 217.709 94.1463 217.623 93.7284C216.202 92.322 214.979 91.3539 213.955 90.824ZM233.665 79.7781C236.298 79.2365 238.243 80.753 239.501 84.3275L239.618 84.8917C240.451 88.9454 239.127 93.0947 235.644 97.3395C238.558 99.223 243.045 99.5415 249.105 98.295C250.084 98.3984 250.677 98.9516 250.884 99.9546C251.116 101.083 250.5 101.798 249.038 102.099C244.942 102.941 240.423 102.782 235.479 101.621L235.853 103.438C236.739 107.743 236.262 110.084 234.423 110.463C233.128 110.729 231.968 108.376 230.945 103.403L229.94 98.513L229.39 96.7964L229.417 94.7002L227.74 88.7724L227.688 88.5217C227.456 87.3933 227.882 86.4998 228.966 85.8412C229.926 82.2462 231.492 80.2251 233.665 79.7781ZM233.355 94.1514C234.567 93.9021 235.478 91.4496 236.088 86.7937L235.534 84.0982L234.614 83.438L234.05 83.554C232.469 85.186 232.237 88.7185 233.355 94.1514ZM253.439 77.9975C255.119 77.6954 258.542 80.0405 263.707 85.0329L264.052 86.0728C264.292 87.2429 261.614 88.7303 256.018 90.535L255.869 90.7617L255.92 91.0125C257.571 94.5932 258.878 96.2847 259.839 96.0869L260.591 95.9322C261.928 95.6571 263.659 93.7984 265.782 90.3559L266.158 90.2786C266.994 90.1066 267.766 90.5794 268.475 91.6968C268.682 92.6998 267.283 94.7952 264.28 97.983C263.472 98.7154 262.447 99.3403 261.203 99.8575C257.817 100.554 254.803 97.8634 252.159 91.7862C250.176 91.8891 249.052 91.2927 248.785 89.9972C248.596 89.0778 249.182 88.3257 250.543 87.7408L250.594 87.9916L251.169 87.6119L250.847 86.0447C249.858 81.2387 250.722 78.5563 253.439 77.9975ZM254.743 82.4336L254.179 82.5496L254.406 84.9207L254.805 86.864L255.056 86.8124C257.379 86.2474 258.498 85.7559 258.412 85.338C256.99 83.9317 255.767 82.9635 254.743 82.4336ZM278.637 69.8084C279.766 69.5763 280.93 71.3188 282.13 75.0359C281.927 76.1666 281.345 76.8309 280.384 77.0286C279.689 77.0408 278.862 76.4052 277.901 75.1218L276.695 74.9778C274.731 75.3818 273.221 77.0427 272.166 79.9605L272.282 80.5247C272.411 81.1516 275.572 81.5903 281.766 81.8408C284.532 82.7963 286.13 84.3189 286.56 86.4085C287.265 89.8354 285.109 93.3282 280.091 96.8869L277.849 97.7401C274.261 98.0861 272.145 96.6919 271.5 93.5575L271.461 93.3695C271.255 92.3665 271.782 91.6481 273.043 91.2145C274.046 91.0082 274.93 91.9154 275.694 93.9362L276.273 94.2092L277.339 93.99C279.721 93.5 281.601 91.4145 282.978 87.7335L282.81 86.9185C282.552 85.6648 279.574 85.0577 273.876 85.0973C270.752 84.5203 268.975 83.187 268.545 81.0974C267.986 78.381 269.739 75.3632 273.804 72.044C275.759 71.3806 277.37 70.6354 278.637 69.8084ZM289.112 54.4551C290.333 54.4652 291.039 54.9299 291.228 55.8493L291.419 58.6849L291.587 59.4999C291.965 61.3387 292.574 63.239 293.413 65.2008L293.538 65.1751C298.085 62.7151 300.944 61.3648 302.114 61.1241C303.395 61.2091 304.125 61.6905 304.306 62.5681C304.598 63.989 303.302 64.996 300.419 65.5892L294.376 69.2497C295.537 74.8916 297.72 82.4357 300.927 91.8821C300.908 93.062 300.418 93.7509 299.457 93.9486L299.332 93.9744C297.869 94.2753 296.751 92.5451 295.977 88.7838C294.858 86.0956 293.147 80.1094 290.845 70.8255L289.717 71.0576C285.737 71.6149 283.584 71.0996 283.257 69.5115C283.163 69.0518 283.485 68.3973 284.225 67.5481L284.852 67.4192L287.891 67.5783L289.897 67.1656L287.721 59.4457C287.102 56.4367 287.565 54.7732 289.112 54.4551Z" fill="#FFAC33"/>
</svg>
