<svg width="28" height="37" viewBox="0 0 28 37" fill="none" xmlns="http://www.w3.org/2000/svg">
<path d="M26.2705 33.0925H2.10905C1.65133 33.0925 1.21237 33.2822 0.888711 33.6199C0.565057 33.9576 0.38323 34.4155 0.38323 34.8931C0.38323 35.3706 0.565057 35.8286 0.888711 36.1662C1.21237 36.5039 1.65133 36.6936 2.10905 36.6936H26.2705C26.7282 36.6936 27.1672 36.5039 27.4909 36.1662C27.8145 35.8286 27.9963 35.3706 27.9963 34.8931C27.9963 34.4155 27.8145 33.9576 27.4909 33.6199C27.1672 33.2822 26.7282 33.0925 26.2705 33.0925ZM2.10905 29.4915H2.26437L9.46104 28.8073C10.2494 28.7254 10.9867 28.363 11.5493 27.781L27.0816 11.5763C27.6845 10.9118 28.0103 10.0251 27.9877 9.11053C27.965 8.19591 27.5958 7.32796 26.9608 6.69686L22.2321 1.76343C21.6149 1.15862 20.8062 0.811596 19.9598 0.788357C19.1133 0.765118 18.2882 1.06729 17.6414 1.63739L2.10905 17.8421C1.55121 18.429 1.20386 19.1983 1.12533 20.0207L0.38323 27.5289C0.359982 27.7926 0.392781 28.0585 0.479291 28.3074C0.565801 28.5564 0.703891 28.7824 0.883718 28.9693C1.04498 29.1362 1.23623 29.2682 1.4465 29.3578C1.65677 29.4474 1.88192 29.4929 2.10905 29.4915ZM19.8332 4.28416L24.5447 9.19959L21.0931 12.7106L16.4679 7.88521L19.8332 4.28416ZM4.47342 20.3268L14.1898 10.2619L18.8495 15.1233L9.18491 25.2062L4.00745 25.7104L4.47342 20.3268Z" fill="#961BA9"/>
</svg>
