<svg width="31" height="31" viewBox="0 0 31 31" fill="none" xmlns="http://www.w3.org/2000/svg">
<path d="M30.9549 2.44387C30.9549 2.02163 30.7872 1.61668 30.4886 1.31811C30.1901 1.01954 29.7851 0.851807 29.3629 0.851807C28.9406 0.851807 28.5357 1.01954 28.2371 1.31811C27.9385 1.61668 27.7708 2.02163 27.7708 2.44387V6.78863C26.0705 5.06919 23.9849 3.65066 21.4758 2.87214C17.6255 1.66968 13.4848 1.78 9.70401 3.18578C5.94036 4.5868 2.37413 7.42705 0.503452 10.8388C0.300564 11.2092 0.25309 11.6449 0.371474 12.0502C0.489857 12.4555 0.7644 12.7972 1.13471 13.0001C1.50501 13.203 1.94075 13.2504 2.34606 13.1321C2.75137 13.0137 3.09305 12.7391 3.29594 12.3688C4.74631 9.72281 7.65821 7.34426 10.8137 6.17091C13.9362 5.01044 17.3559 4.92083 20.5349 5.91617C22.8816 6.64216 24.8287 8.12915 26.3968 10.0062H21.0045C20.5823 10.0062 20.1773 10.1739 19.8787 10.4725C19.5802 10.7711 19.4124 11.176 19.4124 11.5983C19.4124 12.0205 19.5802 12.4255 19.8787 12.724C20.1773 13.0226 20.5823 13.1903 21.0045 13.1903H29.3629C29.7851 13.1903 30.1901 13.0226 30.4886 12.724C30.7872 12.4255 30.9549 12.0205 30.9549 11.5983V2.44387ZM5.48185 21.1507C5.48185 20.3062 5.81732 19.4963 6.41446 18.8991C7.0116 18.302 7.8215 17.9665 8.66598 17.9665H21.4025C22.247 17.9665 23.0569 18.302 23.6541 18.8991C24.2512 19.4963 24.5867 20.3062 24.5867 21.1507V27.5189C24.5867 28.3634 24.2512 29.1733 23.6541 29.7705C23.0569 30.3676 22.247 30.7031 21.4025 30.7031H8.66598C7.8215 30.7031 7.0116 30.3676 6.41446 29.7705C5.81732 29.1733 5.48185 28.3634 5.48185 27.5189V21.1507ZM8.66598 21.9467V26.7229C8.66598 26.934 8.74985 27.1365 8.89914 27.2858C9.04842 27.4351 9.2509 27.5189 9.46202 27.5189H20.6065C20.8176 27.5189 21.0201 27.4351 21.1694 27.2858C21.3187 27.1365 21.4025 26.934 21.4025 26.7229V21.9467C21.4025 21.7356 21.3187 21.5331 21.1694 21.3838C21.0201 21.2345 20.8176 21.1507 20.6065 21.1507H9.46202C9.2509 21.1507 9.04842 21.2345 8.89914 21.3838C8.74985 21.5331 8.66598 21.7356 8.66598 21.9467Z" fill="#961BA9"/>
</svg>
