<svg width="39" height="40" viewBox="0 0 39 40" fill="none" xmlns="http://www.w3.org/2000/svg">
<path d="M16.5196 12.6968C16.5196 12.3159 16.3683 11.9507 16.099 11.6814C15.8297 11.4121 15.4645 11.2608 15.0836 11.2608C14.7028 11.2608 14.3375 11.4121 14.0682 11.6814C13.7989 11.9507 13.6477 12.3159 13.6477 12.6968V27.0566C13.6477 27.4375 13.7989 27.8027 14.0682 28.072C14.3375 28.3413 14.7028 28.4926 15.0836 28.4926C15.4645 28.4926 15.8297 28.3413 16.099 28.072C16.3683 27.8027 16.5196 27.4375 16.5196 27.0566V12.6968ZM25.1355 12.6968C25.1355 12.3159 24.9843 11.9507 24.715 11.6814C24.4457 11.4121 24.0804 11.2608 23.6996 11.2608C23.3187 11.2608 22.9535 11.4121 22.6842 11.6814C22.4149 11.9507 22.2636 12.3159 22.2636 12.6968V27.0566C22.2636 27.4375 22.4149 27.8027 22.6842 28.072C22.9535 28.3413 23.3187 28.4926 23.6996 28.4926C24.0804 28.4926 24.4457 28.3413 24.715 28.072C24.9843 27.8027 25.1355 27.4375 25.1355 27.0566V12.6968ZM19.3916 0.730225C8.817 0.730225 0.245117 9.30211 0.245117 19.8767C0.245117 30.4513 8.817 39.0232 19.3916 39.0232C29.9662 39.0232 38.5381 30.4513 38.5381 19.8767C38.5381 9.30211 29.9662 0.730225 19.3916 0.730225ZM3.11709 19.8767C3.11709 15.5604 4.83172 11.421 7.88378 8.36889C10.9358 5.31683 15.0753 3.6022 19.3916 3.6022C23.7079 3.6022 27.8474 5.31683 30.8994 8.36889C33.9515 11.421 35.6661 15.5604 35.6661 19.8767C35.6661 24.193 33.9515 28.3325 30.8994 31.3845C27.8474 34.4366 23.7079 36.1512 19.3916 36.1512C15.0753 36.1512 10.9358 34.4366 7.88378 31.3845C4.83172 28.3325 3.11709 24.193 3.11709 19.8767Z" fill="#961BA9"/>
</svg>
