<svg width="31" height="36" viewBox="0 0 31 36" fill="none" xmlns="http://www.w3.org/2000/svg">
<path d="M29.1876 16.4926C29.6057 16.4927 30.0092 16.6462 30.3217 16.924C30.6341 17.2018 30.8337 17.5846 30.8826 17.9998L30.8945 18.1995V25.8805C30.8943 28.3049 29.9562 30.6352 28.2766 32.3835C26.597 34.1318 24.3062 35.1625 21.8838 35.2599L21.5066 35.2685H9.12307C8.13588 35.2685 7.17921 34.9263 6.41605 34.3001C5.65289 33.6738 5.13046 32.8024 4.93776 31.8342H8.94385L9.0326 31.8496L9.12307 31.8547H21.5066C23.0308 31.8547 24.4973 31.2721 25.6059 30.2262C26.7146 29.1804 27.3817 27.7503 27.4705 26.2287L27.4807 25.901V18.1995C27.4807 17.7468 27.6606 17.3127 27.9807 16.9925C28.3008 16.6724 28.7349 16.4926 29.1876 16.4926ZM24.0567 13.0566C24.4748 13.0567 24.8783 13.2102 25.1907 13.488C25.5031 13.7658 25.7027 14.1486 25.7517 14.5638L25.7636 14.7635V25.8583C25.7638 26.9417 25.3518 27.9846 24.6114 28.7755C23.8709 29.5664 22.8574 30.046 21.7763 30.1171L21.4964 30.1273H4.4274C3.344 30.1275 2.3011 29.7155 1.51023 28.9751C0.71937 28.2346 0.239761 27.2211 0.168691 26.14L0.160156 25.8601V14.7823C0.161068 14.3474 0.327958 13.9292 0.626749 13.6132C0.925539 13.2972 1.33369 13.1071 1.76787 13.0819C2.20204 13.0566 2.62949 13.198 2.96293 13.4772C3.29636 13.7565 3.51064 14.1524 3.562 14.5843L3.57395 14.7823V25.8601C3.57388 26.0598 3.64388 26.2533 3.77176 26.4067C3.89964 26.5602 4.07729 26.6639 4.27378 26.6998L4.4274 26.7135H21.4964C21.6961 26.7136 21.8896 26.6436 22.043 26.5157C22.1965 26.3878 22.3002 26.2102 22.3362 26.0137L22.3498 25.8601V14.7635C22.3498 14.3108 22.5296 13.8767 22.8497 13.5566C23.1699 13.2365 23.604 13.0566 24.0567 13.0566ZM5.78267 6.75135L11.7517 0.777213C12.0454 0.483073 12.4363 0.306213 12.8512 0.279815C13.266 0.253417 13.6762 0.379296 14.0048 0.633833L14.1669 0.777213L20.1445 6.75135C20.4506 7.05852 20.6284 7.47069 20.6416 7.90416C20.6548 8.33763 20.5026 8.75988 20.2158 9.08515C19.9289 9.41043 19.5291 9.61434 19.0974 9.65546C18.6657 9.69659 18.2345 9.57185 17.8914 9.30657L17.7309 9.1649L14.6705 6.10614V21.1951C14.6704 21.6132 14.5169 22.0167 14.2391 22.3291C13.9613 22.6415 13.5785 22.8411 13.1633 22.8901L12.9636 22.902C12.5455 22.9019 12.142 22.7485 11.8296 22.4706C11.5171 22.1928 11.3176 21.81 11.2686 21.3948L11.2567 21.1951V6.10102L8.19622 9.1649C7.90231 9.45879 7.51126 9.63533 7.09644 9.66142C6.68162 9.6875 6.27153 9.56133 5.94312 9.30657L5.78267 9.1649C5.48879 8.87099 5.31224 8.47994 5.28616 8.06512C5.26007 7.6503 5.38624 7.24021 5.641 6.9118L5.78267 6.75135Z" fill="#961BA9"/>
<path d="M29.1876 16.4926C29.6057 16.4927 30.0092 16.6462 30.3217 16.924C30.6341 17.2018 30.8337 17.5846 30.8826 17.9998L30.8945 18.1995V25.8805C30.8943 28.3049 29.9562 30.6352 28.2766 32.3835C26.597 34.1318 24.3062 35.1625 21.8838 35.2599L21.5066 35.2685H9.12307C8.13588 35.2685 7.17921 34.9263 6.41605 34.3001C5.65289 33.6738 5.13046 32.8024 4.93776 31.8342H8.94385L9.0326 31.8496L9.12307 31.8547H21.5066C23.0308 31.8547 24.4973 31.2721 25.6059 30.2262C26.7146 29.1804 27.3817 27.7503 27.4705 26.2287L27.4807 25.901V18.1995C27.4807 17.7468 27.6606 17.3127 27.9807 16.9925C28.3008 16.6724 28.7349 16.4926 29.1876 16.4926ZM24.0567 13.0566C24.4748 13.0567 24.8783 13.2102 25.1907 13.488C25.5031 13.7658 25.7027 14.1486 25.7517 14.5638L25.7636 14.7635V25.8583C25.7638 26.9417 25.3518 27.9846 24.6114 28.7755C23.8709 29.5664 22.8574 30.046 21.7763 30.1171L21.4964 30.1273H4.4274C3.344 30.1275 2.3011 29.7155 1.51023 28.9751C0.71937 28.2346 0.239761 27.2211 0.168691 26.14L0.160156 25.8601V14.7823C0.161068 14.3474 0.327958 13.9292 0.626749 13.6132C0.925539 13.2972 1.33369 13.1071 1.76787 13.0819C2.20204 13.0566 2.62949 13.198 2.96293 13.4772C3.29636 13.7565 3.51064 14.1524 3.562 14.5843L3.57395 14.7823V25.8601C3.57388 26.0598 3.64388 26.2533 3.77176 26.4067C3.89964 26.5602 4.07729 26.6639 4.27378 26.6998L4.4274 26.7135H21.4964C21.6961 26.7136 21.8896 26.6436 22.043 26.5157C22.1965 26.3878 22.3002 26.2102 22.3362 26.0137L22.3498 25.8601V14.7635C22.3498 14.3108 22.5296 13.8767 22.8497 13.5566C23.1699 13.2365 23.604 13.0566 24.0567 13.0566ZM5.78267 6.75135L11.7517 0.777213C12.0454 0.483073 12.4363 0.306213 12.8512 0.279815C13.266 0.253417 13.6762 0.379296 14.0048 0.633833L14.1669 0.777213L20.1445 6.75135C20.4506 7.05852 20.6284 7.47069 20.6416 7.90416C20.6548 8.33763 20.5026 8.75988 20.2158 9.08515C19.9289 9.41043 19.5291 9.61434 19.0974 9.65546C18.6657 9.69659 18.2345 9.57185 17.8914 9.30657L17.7309 9.1649L14.6705 6.10614V21.1951C14.6704 21.6132 14.5169 22.0167 14.2391 22.3291C13.9613 22.6415 13.5785 22.8411 13.1633 22.8901L12.9636 22.902C12.5455 22.9019 12.142 22.7485 11.8296 22.4706C11.5171 22.1928 11.3176 21.81 11.2686 21.3948L11.2567 21.1951V6.10102L8.19622 9.1649C7.90231 9.45879 7.51126 9.63533 7.09644 9.66142C6.68162 9.6875 6.27153 9.56133 5.94312 9.30657L5.78267 9.1649C5.48879 8.87099 5.31224 8.47994 5.28616 8.06512C5.26007 7.6503 5.38624 7.24021 5.641 6.9118L5.78267 6.75135Z" stroke="#FFFCF6"/>
</svg>
